<svg width="10" height="17" viewBox="0 0 10 17" fill="none" xmlns="http://www.w3.org/2000/svg">
    <path d="M0.655997 1.31549L7.6595 8.50012L0.655998 15.6847C0.530616 15.8131 0.460422 15.9854 0.460422 16.1649C0.460422 16.3443 0.530616 16.5166 0.655998 16.645C0.716897 16.7071 0.789585 16.7565 0.869806 16.7902C0.950028 16.8239 1.03617 16.8413 1.12319 16.8413C1.2102 16.8413 1.29634 16.8239 1.37656 16.7902C1.45679 16.7565 1.52947 16.7071 1.59037 16.645L9.04237 9.00181C9.17321 8.86758 9.24643 8.68756 9.24643 8.50012C9.24643 8.31268 9.1732 8.13266 9.04237 7.99843L1.59181 0.355244C1.53087 0.29265 1.458 0.242899 1.37751 0.208929C1.29702 0.174959 1.21055 0.157459 1.12318 0.157459C1.03582 0.157459 0.949345 0.174959 0.868857 0.208929C0.78837 0.242899 0.715504 0.29265 0.654559 0.355244C0.529177 0.48361 0.458984 0.65593 0.458984 0.835369C0.458984 1.01481 0.529177 1.18713 0.654559 1.31549L0.655997 1.31549Z" fill="#141313"/>
</svg>
