<svg width="42" height="42" viewBox="0 0 42 42" fill="none" xmlns="http://www.w3.org/2000/svg">
    <path fill-rule="evenodd" clip-rule="evenodd" d="M18.9644 0.0603644C13.1405 0.655878 7.72131 3.71169 4.22974 8.36915C3.26905 9.65066 2.73754 10.5321 2.02469 12.0263C-1.42825 19.2639 -0.4078 27.8609 4.65106 34.1534C10.1922 41.0457 19.3158 43.7088 27.7358 40.8916C30.8421 39.8523 33.6414 38.0736 36.0129 35.6324C38.3731 33.2027 39.8749 30.7402 40.9276 27.5733C43.931 18.5386 40.4738 8.66971 32.4604 3.40285C29.9891 1.77861 27.0586 0.656914 24.1098 0.206496C22.8369 0.0120683 20.176 -0.063485 18.9644 0.0603644ZM23.3348 2.80671C30.3452 3.72361 36.2446 8.6068 38.4186 15.2924C39.1012 17.3916 39.2637 18.4895 39.2625 20.9911C39.2614 22.897 39.227 23.3893 39.0246 24.394C37.6117 31.4075 32.47 36.9396 25.7246 38.7039C23.8027 39.2065 23.1596 39.2838 20.9322 39.2795C18.584 39.2749 17.3828 39.0937 15.3527 38.4372C9.0883 36.4116 4.31581 31.0608 3.02349 24.6143C1.18548 15.4455 6.53236 6.38933 15.4949 3.49125C17.8903 2.71665 20.7421 2.46771 23.3348 2.80671ZM10.1778 14.642C10.1471 14.6919 10.1307 17.5749 10.1415 21.0488L10.1612 27.365L11.377 27.3942L12.5928 27.4233L12.6198 22.8242L12.6468 18.2251L14.6512 20.9613C16.3837 23.3261 16.6887 23.6931 16.8989 23.6656C17.0846 23.6415 17.9297 22.583 20.4693 19.1941C22.2993 16.7523 23.7728 14.7307 23.7439 14.7018C23.715 14.6729 23.0706 14.6542 22.3118 14.6602C20.9582 14.6709 20.928 14.6761 20.7125 14.94C20.5916 15.088 19.7061 16.2982 18.7447 17.6295C17.7832 18.9607 16.9701 20.0518 16.9377 20.0541C16.9052 20.0565 15.9997 18.8458 14.9253 17.3637L12.9719 14.6691H11.7562C11.0877 14.6691 10.4715 14.6426 10.3872 14.6102C10.3029 14.5778 10.2087 14.5922 10.1778 14.642ZM25.2487 15.6796L24.4157 16.7937L26.6126 16.8455C28.714 16.8951 28.8319 16.9089 29.3233 17.1621C30.0326 17.5276 30.4094 18.0888 30.4817 18.8872C30.5502 19.6422 30.3995 20.1507 29.9584 20.6536C29.3103 21.3922 29.2535 21.4008 25.049 21.4034L21.2947 21.4057V24.4112V27.4168H22.4857H23.6767V25.4994V23.5821L26.3954 23.5809C29.3463 23.5795 29.7603 23.5245 30.7114 23.0064C33.1677 21.6685 33.6615 17.9327 31.6458 15.9367C30.6057 14.9067 29.5602 14.5702 27.3906 14.5672L26.0815 14.5655L25.2487 15.6796Z" fill="#141313"/>
</svg>
